<svg xmlns="http://www.w3.org/2000/svg" font-family="system-ui,-apple-system,sans-serif" style="width:100%;height:auto;display:block" viewBox="0 0 930 627"><style>.qk{font-size:11px;fill:#898781}.qs{font-size:11.5px;fill:#898781}.qc{font-size:13px;fill:#898781;font-weight:640}.qr{font-size:12px;fill:#6d6b66}.qv{font-size:10.5px;font-weight:640}.qh{font-size:14px;fill:#5d5b57;font-weight:650}@media(prefers-color-scheme:dark){.qr{fill:#a8a69e}.qh{fill:#c3c2b7}}</style><defs><circle id="qfd" r="4"/></defs><text class="qh" y="20">The same 21 models, ranked twice</text><text class="qs" y="38">TREC-COVID &#183; only the wording of the query differs between the two columns</text><g class="qc" text-anchor="middle"><text x="286" y="54">human questions</text><text x="592" y="54">verbose rewrite</text></g><g class="qs" text-anchor="middle"><text x="286" y="69">the benchmark's own board</text><text x="592" y="69">mean of four rewriters</text></g><g fill="none" stroke="#b9b7b0" stroke-width="1.3" opacity="0.55"><path d="M294,90 C398,90 480,140 584,140"/><path d="M294,140 C398,140 480,190 584,190"/><path d="M294,165 C398,165 480,115 584,115"/><path d="M294,190 C398,190 480,240 584,240"/><path d="M294,215 C398,215 480,265 584,265"/><path d="M294,265 C398,265 480,315 584,315"/><path d="M294,290 C398,290 480,290 584,290"/><path d="M294,365 C398,365 480,365 584,365"/><path d="M294,415 C398,415 480,415 584,415"/><path d="M294,490 C398,490 480,515 584,515"/><path d="M294,515 C398,515 480,565 584,565"/><path d="M294,540 C398,540 480,490 584,490"/><path d="M294,565 C398,565 480,540 584,540"/><path d="M294,590 C398,590 480,590 584,590"/></g><g fill="none" stroke="#e34948" stroke-width="2.4" opacity="1"><path d="M294,115 C398,115 480,215 584,215"/><path d="M294,315 C398,315 480,390 584,390"/><path d="M294,340 C398,340 480,440 584,440"/><path d="M294,390 C398,390 480,465 584,465"/></g><g fill="none" stroke="#2a78d6" stroke-width="2.4" opacity="1"><path d="M294,240 C398,240 480,165 584,165"/><path d="M294,440 C398,440 480,90 584,90"/><path d="M294,465 C398,465 480,340 584,340"/></g><g fill="#b9b7b0" opacity="0.55"><use href="#qfd" x="294" y="90"/><use href="#qfd" x="584" y="140"/><use href="#qfd" x="294" y="140"/><use href="#qfd" x="584" y="190"/><use href="#qfd" x="294" y="165"/><use href="#qfd" x="584" y="115"/><use href="#qfd" x="294" y="190"/><use href="#qfd" x="584" y="240"/><use href="#qfd" x="294" y="215"/><use href="#qfd" x="584" y="265"/><use href="#qfd" x="294" y="265"/><use href="#qfd" x="584" y="315"/><use href="#qfd" x="294" y="290"/><use href="#qfd" x="584" y="290"/><use href="#qfd" x="294" y="365"/><use href="#qfd" x="584" y="365"/><use href="#qfd" x="294" y="415"/><use href="#qfd" x="584" y="415"/><use href="#qfd" x="294" y="490"/><use href="#qfd" x="584" y="515"/><use href="#qfd" x="294" y="515"/><use href="#qfd" x="584" y="565"/><use href="#qfd" x="294" y="540"/><use href="#qfd" x="584" y="490"/><use href="#qfd" x="294" y="565"/><use href="#qfd" x="584" y="540"/><use href="#qfd" x="294" y="590"/><use href="#qfd" x="584" y="590"/></g><g fill="#e34948" opacity="1"><use href="#qfd" x="294" y="115"/><use href="#qfd" x="584" y="215"/><use href="#qfd" x="294" y="315"/><use href="#qfd" x="584" y="390"/><use href="#qfd" x="294" y="340"/><use href="#qfd" x="584" y="440"/><use href="#qfd" x="294" y="390"/><use href="#qfd" x="584" y="465"/></g><g fill="#2a78d6" opacity="1"><use href="#qfd" x="294" y="240"/><use href="#qfd" x="584" y="165"/><use href="#qfd" x="294" y="440"/><use href="#qfd" x="584" y="90"/><use href="#qfd" x="294" y="465"/><use href="#qfd" x="584" y="340"/></g><g class="qk" text-anchor="end"><text x="278" y="94">1</text><text x="278" y="119">2</text><text x="278" y="144">3</text><text x="278" y="169">4</text><text x="278" y="194">5</text><text x="278" y="219">6</text><text x="278" y="244">7</text><text x="278" y="269">8</text><text x="278" y="294">9</text><text x="278" y="319">10</text><text x="278" y="344">11</text><text x="278" y="369">12</text><text x="278" y="394">13</text><text x="278" y="419">14</text><text x="278" y="444">15</text><text x="278" y="469">16</text><text x="278" y="494">17</text><text x="278" y="519">18</text><text x="278" y="544">19</text><text x="278" y="569">20</text><text x="278" y="594">21</text></g><g class="qk"><text x="600" y="144">3</text><text x="600" y="219">6</text><text x="600" y="194">5</text><text x="600" y="119">2</text><text x="600" y="244">7</text><text x="600" y="269">8</text><text x="600" y="169">4</text><text x="600" y="319">10</text><text x="600" y="294">9</text><text x="600" y="394">13</text><text x="600" y="444">15</text><text x="600" y="369">12</text><text x="600" y="469">16</text><text x="600" y="419">14</text><text x="600" y="94">1</text><text x="600" y="344">11</text><text x="600" y="519">18</text><text x="600" y="569">20</text><text x="600" y="494">17</text><text x="600" y="544">19</text><text x="600" y="594">21</text></g><g class="qr" text-anchor="end"><text x="256" y="94">voyage-3-large</text><text x="256" y="119" fill="#e34948">embed-multilingual-v3.0</text><text x="256" y="144">voyage-4-large</text><text x="256" y="169">text-embedding-004</text><text x="256" y="194">voyage-4</text><text x="256" y="219">voyage-3.5-int8-512</text><text x="256" y="244" fill="#2a78d6">text-embedding-3-large</text><text x="256" y="269">gemini-embedding-001</text><text x="256" y="294">voyage-4-lite</text><text x="256" y="319" fill="#e34948">text-embedding-3-small</text><text x="256" y="344" fill="#e34948">embed-v4.0</text><text x="256" y="369">bge-base-en-v1.5</text><text x="256" y="394" fill="#e34948">bge-small-en-v1.5</text><text x="256" y="419">bge-large-en-v1.5</text><text x="256" y="444" fill="#2a78d6">qwen3-embedding-8b</text><text x="256" y="469" fill="#2a78d6">voyage-law-2</text><text x="256" y="494">multi-qa-MiniLM-L6-cos-v1</text><text x="256" y="519">bge-m3</text><text x="256" y="544">all-mpnet-base-v2</text><text x="256" y="569">all-MiniLM-L12-v2</text><text x="256" y="594">all-MiniLM-L6-v2</text></g><g class="qr"><text x="622" y="144">voyage-3-large</text><text x="622" y="219" fill="#e34948">embed-multilingual-v3.0   -4</text><text x="622" y="194">voyage-4-large</text><text x="622" y="119">text-embedding-004</text><text x="622" y="244">voyage-4</text><text x="622" y="269">voyage-3.5-int8-512</text><text x="622" y="169" fill="#2a78d6">text-embedding-3-large   +3</text><text x="622" y="319">gemini-embedding-001</text><text x="622" y="294">voyage-4-lite</text><text x="622" y="394" fill="#e34948">text-embedding-3-small   -3</text><text x="622" y="444" fill="#e34948">embed-v4.0   -4</text><text x="622" y="369">bge-base-en-v1.5</text><text x="622" y="469" fill="#e34948">bge-small-en-v1.5   -3</text><text x="622" y="419">bge-large-en-v1.5</text><text x="622" y="94" fill="#2a78d6">qwen3-embedding-8b   +14</text><text x="622" y="344" fill="#2a78d6">voyage-law-2   +5</text><text x="622" y="519">multi-qa-MiniLM-L6-cos-v1</text><text x="622" y="569">bge-m3</text><text x="622" y="494">all-mpnet-base-v2</text><text x="622" y="544">all-MiniLM-L12-v2</text><text x="622" y="594">all-MiniLM-L6-v2</text></g></svg>