<svg xmlns="http://www.w3.org/2000/svg" font-family="system-ui,-apple-system,sans-serif" style="width:100%;height:auto;display:block" viewBox="0 0 748 638"><style>.qk{font-size:11px;fill:#898781}.qs{font-size:11.5px;fill:#898781}.qc{font-size:13px;fill:#898781;font-weight:640}.qr{font-size:12px;fill:#6d6b66}.qv{font-size:10.5px;font-weight:640}.qh{font-size:14px;fill:#5d5b57;font-weight:650}@media(prefers-color-scheme:dark){.qr{fill:#a8a69e}.qh{fill:#c3c2b7}}</style><defs><rect id="qfc" width="128" height="22" rx="3"/><rect id="qfg" width="14" height="12"/></defs><text class="qh" y="20">Change in NDCG@10 when the query is rewritten</text><text class="qs" y="38">TREC-COVID &#183; 21 models &#183; mean of four LLM rewriters &#183; corpus and relevance labels held fixed</text><g class="qc" text-anchor="middle"><text x="312" y="54">paraphrase</text><text x="444" y="54">terse</text><text x="576" y="54">verbose</text></g><text class="qs" x="238" y="54" text-anchor="end">strongest first &#8595;</text><g class="qr" text-anchor="end"><text x="238" y="77">voyage-3-large</text><text x="238" y="103">embed-multilingual-v3.0</text><text x="238" y="129">voyage-4-large</text><text x="238" y="155">text-embedding-004</text><text x="238" y="181">voyage-4</text><text x="238" y="207">voyage-3.5-int8-512</text><text x="238" y="233">text-embedding-3-large</text><text x="238" y="259">gemini-embedding-001</text><text x="238" y="285">voyage-4-lite</text><text x="238" y="311">text-embedding-3-small</text><text x="238" y="337">embed-v4.0</text><text x="238" y="363">bge-base-en-v1.5</text><text x="238" y="389">bge-small-en-v1.5</text><text x="238" y="415">bge-large-en-v1.5</text><text x="238" y="441">qwen3-embedding-8b</text><text x="238" y="467">voyage-law-2</text><text x="238" y="493">multi-qa-MiniLM-L6-cos-v1</text><text x="238" y="519">bge-m3</text><text x="238" y="545">all-mpnet-base-v2</text><text x="238" y="571">all-MiniLM-L12-v2</text><text x="238" y="597">all-MiniLM-L6-v2</text></g><use href="#qfc" x="248" y="62" fill="#f2b5b0"/><use href="#qfc" x="380" y="62" fill="#f4c2be"/><use href="#qfc" x="512" y="62" fill="#f3b9b4"/><use href="#qfc" x="248" y="88" fill="#f2b5b0"/><use href="#qfc" x="380" y="88" fill="#e8e7e3"/><use href="#qfc" x="512" y="88" fill="#f2b6b1"/><use href="#qfc" x="248" y="114" fill="#f2b8b3"/><use href="#qfc" x="380" y="114" fill="#f6cac6"/><use href="#qfc" x="512" y="114" fill="#f3bcb8"/><use href="#qfc" x="248" y="140" fill="#f4c2be"/><use href="#qfc" x="380" y="140" fill="#e8e7e3"/><use href="#qfc" x="512" y="140" fill="#e8e7e3"/><use href="#qfc" x="248" y="166" fill="#f3bab6"/><use href="#qfc" x="380" y="166" fill="#f2b5b0"/><use href="#qfc" x="512" y="166" fill="#e8e7e3"/><use href="#qfc" x="248" y="192" fill="#f1b3ae"/><use href="#qfc" x="380" y="192" fill="#e8e7e3"/><use href="#qfc" x="512" y="192" fill="#f5c8c4"/><use href="#qfc" x="248" y="218" fill="#f1b2ad"/><use href="#qfc" x="380" y="218" fill="#e68681"/><use href="#qfc" x="512" y="218" fill="#1b5a9f"/><use href="#qfc" x="248" y="244" fill="#f3bab5"/><use href="#qfc" x="380" y="244" fill="#e8e7e3"/><use href="#qfc" x="512" y="244" fill="#e8e7e3"/><use href="#qfc" x="248" y="270" fill="#f4c3be"/><use href="#qfc" x="380" y="270" fill="#f4c3be"/><use href="#qfc" x="512" y="270" fill="#e8e7e3"/><use href="#qfc" x="248" y="296" fill="#efa5a0"/><use href="#qfc" x="380" y="296" fill="#e78b86"/><use href="#qfc" x="512" y="296" fill="#f2b7b2"/><use href="#qfc" x="248" y="322" fill="#f2b5b1"/><use href="#qfc" x="380" y="322" fill="#e8e7e3"/><use href="#qfc" x="512" y="322" fill="#1b589c"/><use href="#qfc" x="248" y="348" fill="#f5c7c2"/><use href="#qfc" x="380" y="348" fill="#dd6964"/><use href="#qfc" x="512" y="348" fill="#2976d2"/><use href="#qfc" x="248" y="374" fill="#efa8a3"/><use href="#qfc" x="380" y="374" fill="#de6a65"/><use href="#qfc" x="512" y="374" fill="#1f62ae"/><use href="#qfc" x="248" y="400" fill="#f0ada9"/><use href="#qfc" x="380" y="400" fill="#c6403e"/><use href="#qfc" x="512" y="400" fill="#2e7bd7"/><use href="#qfc" x="248" y="426" fill="#e8e7e3"/><use href="#qfc" x="380" y="426" fill="#e5817c"/><use href="#qfc" x="512" y="426" fill="#cde2fb"/><use href="#qfc" x="248" y="452" fill="#e8e7e3"/><use href="#qfc" x="380" y="452" fill="#f6c8c4"/><use href="#qfc" x="512" y="452" fill="#599ae8"/><use href="#qfc" x="248" y="478" fill="#e8e7e3"/><use href="#qfc" x="380" y="478" fill="#e8e7e3"/><use href="#qfc" x="512" y="478" fill="#448be0"/><use href="#qfc" x="248" y="504" fill="#e78984"/><use href="#qfc" x="380" y="504" fill="#e68681"/><use href="#qfc" x="512" y="504" fill="#2c79d7"/><use href="#qfc" x="248" y="530" fill="#e8e7e3"/><use href="#qfc" x="380" y="530" fill="#1b589d"/><use href="#qfc" x="512" y="530" fill="#81b3ef"/><use href="#qfc" x="248" y="556" fill="#f4c1bc"/><use href="#qfc" x="380" y="556" fill="#e8e7e3"/><use href="#qfc" x="512" y="556" fill="#6da7eb"/><use href="#qfc" x="248" y="582" fill="#f4bfba"/><use href="#qfc" x="380" y="582" fill="#f4c3be"/><use href="#qfc" x="512" y="582" fill="#5d9de8"/><g class="qv" text-anchor="middle"><text x="444" y="233" fill="#0b0b0b">-0.10</text><text x="444" y="311" fill="#0b0b0b">-0.09</text><text x="444" y="363" fill="#fff">-0.14</text><text x="444" y="389" fill="#fff">-0.13</text><text x="444" y="415" fill="#fff">-0.20</text><text x="444" y="441" fill="#0b0b0b">-0.11</text><text x="576" y="441" fill="#0b0b0b">+0.26</text><text x="576" y="467" fill="#0b0b0b">+0.14</text><text x="576" y="493" fill="#fff">+0.11</text><text x="312" y="519" fill="#0b0b0b">-0.10</text><text x="444" y="519" fill="#0b0b0b">-0.10</text><text x="576" y="545" fill="#0b0b0b">+0.17</text><text x="576" y="571" fill="#0b0b0b">+0.15</text><text x="576" y="597" fill="#0b0b0b">+0.14</text></g><text class="qs" x="662" y="71">hurts</text><use href="#qfg" x="662" y="78" fill="#a52a2a"/><use href="#qfg" x="662" y="90" fill="#c13c3b"/><use href="#qfg" x="662" y="102" fill="#d55a56"/><use href="#qfg" x="662" y="114" fill="#e4817c"/><use href="#qfg" x="662" y="126" fill="#f0aba7"/><use href="#qfg" x="662" y="138" fill="#e8e7e3"/><use href="#qfg" x="662" y="150" fill="#2670c8"/><use href="#qfg" x="662" y="162" fill="#448be0"/><use href="#qfg" x="662" y="174" fill="#72aaec"/><use href="#qfg" x="662" y="186" fill="#a7cbf5"/><use href="#qfg" x="662" y="198" fill="#cde2fb"/><text class="qs" x="662" y="222">helps</text></svg>